<svg width="136" height="135" viewBox="0 0 136 135" fill="none" xmlns="http://www.w3.org/2000/svg">
<path d="M15.0613 51.3357C13.4936 51.3357 11.9819 51.3357 10.4142 51.3357C6.32689 51.2799 3.52738 48.493 3.47139 44.3683C3.47139 41.4699 3.30342 38.5714 3.52738 35.7287C3.63936 34.2795 4.47921 32.886 4.92713 31.4926C5.20708 30.768 5.655 29.9876 5.655 29.263C5.711 25.1383 5.54302 21.0136 6.88679 17.0004C10.1902 6.96738 19.5406 0.111477 30.1227 0.0557378C34.266 0.0557378 38.4652 -0.111479 42.5525 0.334433C54.3664 1.61643 63.6608 11.9839 63.8847 23.8563C63.8847 24.9154 63.8847 25.9744 63.8847 27.0334C63.8287 28.9843 63.7168 30.8237 65.2285 32.4959C65.9004 33.2762 66.0683 34.6697 66.1243 35.7845C66.2363 38.6829 66.1803 41.6371 66.1803 44.5355C66.1243 48.4372 63.2688 51.2242 59.3495 51.2799C57.8378 51.2799 56.2701 51.2799 54.6464 51.2799C54.4784 52.0045 54.3104 52.7292 54.0865 53.4538C52.7427 57.9686 50.3351 61.8146 46.9197 65.0475C46.4718 65.4934 46.1359 66.2737 46.0799 66.8869C45.9679 69.2279 46.0239 71.6247 46.0239 73.9657C53.4706 76.0281 60.8613 78.0347 68.3639 80.097C68.3639 79.9298 68.4199 79.5396 68.4199 79.0937C68.4199 74.4117 68.4199 69.7296 68.4199 65.0475C68.4199 60.7556 71.2194 57.9686 75.5307 57.9686C78.1622 57.9686 80.7378 57.9686 83.3693 57.9686C84.2091 57.9686 84.6571 57.8571 84.769 56.9096C84.937 55.6276 85.273 54.3456 85.5529 53.0636C86.2248 49.6635 87.5126 48.1028 90.816 46.9323C90.816 45.4831 90.816 44.0339 90.816 42.3617C90.3121 42.3617 89.8642 42.3617 89.3602 42.3617C84.1532 42.3617 78.8901 42.3617 73.683 42.3617C71.4994 42.3617 70.7715 41.6371 70.7155 39.4633C70.7155 29.5417 70.7155 19.5644 70.7155 9.64286C70.7155 7.46903 71.4434 6.68869 73.627 6.68869C89.5842 6.68869 105.541 6.68869 121.499 6.68869C123.682 6.68869 124.466 7.41329 124.466 9.58712C124.466 13.7675 124.466 17.948 124.466 22.2956C125.194 22.2956 125.81 22.2399 126.482 22.2956C129.337 22.6301 132.753 21.0136 134.824 23.076C136.952 25.1941 135.608 28.6499 135.608 31.4926C135.72 49.6078 135.664 67.723 135.664 85.8382C135.664 88.5694 135.048 89.1825 132.305 89.1825C130.513 89.1825 128.665 89.1825 126.706 89.1825C126.706 89.9629 126.706 90.576 126.706 91.1891C126.65 95.2023 123.85 98.045 119.819 98.1008C116.627 98.1565 113.492 98.1008 110.301 98.1008C109.853 98.1008 109.405 98.1008 108.789 98.1008C108.789 100.107 108.733 102.002 108.845 103.898C108.845 104.344 109.237 104.845 109.517 105.235C114.836 113.875 120.211 122.57 125.586 131.21C125.866 131.656 126.09 132.102 126.426 132.603C125.138 133.384 123.962 134.108 122.674 134.944C122.338 134.387 122.002 133.941 121.723 133.439C116.515 124.967 111.252 116.495 106.045 108.078C105.765 107.576 105.205 107.242 104.814 106.796C104.702 106.908 104.59 106.963 104.422 107.075C104.422 109.583 104.366 112.091 104.478 114.6C104.478 115.101 104.87 115.603 105.149 116.104C108.509 121.567 111.868 127.029 115.34 132.603C114.052 133.384 112.876 134.164 111.532 134.944C109.237 131.266 106.997 127.642 104.534 123.685C104.534 127.252 104.534 130.429 104.534 133.718C102.966 133.718 101.566 133.718 100.054 133.718C100.054 124.911 100.054 116.049 100.054 107.13C98.4866 107.13 97.0869 107.13 95.5751 107.13C95.5751 115.993 95.5751 124.8 95.5751 133.662C94.0634 133.662 92.6637 133.662 91.0959 133.662C91.0959 130.485 91.0959 127.308 91.0959 124.131C90.984 124.075 90.872 124.019 90.816 123.964C90.48 124.465 90.2001 124.967 89.8642 125.469C89.0243 126.806 88.2404 128.2 87.3446 129.482C86.5607 130.652 85.8329 131.767 86.7847 133.384C85.161 133.662 83.7612 133.829 82.1375 134.108C81.6336 130.429 81.1297 126.806 80.5698 123.016C74.3549 124.242 68.252 125.469 61.9811 126.695C61.9811 129.036 61.9811 131.321 61.9811 133.718C60.4693 133.718 59.0696 133.718 57.5578 133.718C57.5578 123.406 57.5578 113.095 57.5578 102.671C58.9576 102.671 60.3574 102.671 61.9251 102.671C61.9251 109.137 61.9251 115.547 61.9251 122.18C68.028 120.954 73.907 119.783 79.9539 118.613C79.618 115.993 79.282 113.54 78.9461 111.088C78.4422 107.298 77.9942 103.563 77.3224 99.7729C75.8666 91.1891 70.9395 85.6152 62.597 83.1627C56.55 81.379 50.4471 79.9298 44.4002 78.3134C43.8963 78.2019 43.2804 78.1462 42.7205 78.1462C39.417 78.1462 36.1136 78.2577 32.8102 78.0904C28.499 77.9232 24.4117 78.4806 20.2684 79.7069C16.2931 80.9331 12.2618 81.825 8.28654 82.9397C6.38288 83.4971 4.5352 84.2217 2.51956 84.9463C1.90367 83.8316 1.1758 82.6053 0.279953 81.1003C2.57555 80.2643 4.70317 79.3167 6.88679 78.7036C12.4858 77.1429 18.1408 75.6937 23.9078 74.1887C23.9078 71.5132 23.9078 68.8935 23.9078 66.2737C23.9078 65.995 23.6838 65.6606 23.4599 65.4934C18.9247 61.6474 16.2371 56.9653 15.0613 51.3357ZM50.2791 37.2337C50.3351 37.2337 50.4471 37.2337 50.5031 37.2337C50.5031 33.7779 50.5591 30.2663 50.5031 26.8105C50.2791 20.2333 45.352 14.6594 38.9131 13.6561C37.0095 13.3774 34.9938 13.3774 33.0342 13.3774C25.3075 13.4889 19.2046 19.5087 19.1486 27.2007C19.0926 33.8336 19.0366 40.4666 19.1486 47.0995C19.2606 52.8964 21.5562 57.8014 25.8674 61.7031C26.2594 62.0376 26.9313 62.3163 27.4352 62.3163C32.3063 62.372 37.2334 62.372 42.1046 62.3163C42.6085 62.3163 43.2244 62.0933 43.5603 61.7589C47.1997 58.526 49.6632 54.5128 50.0552 49.6635C50.5591 45.5946 50.2791 41.4141 50.2791 37.2337ZM75.2507 11.2593C75.2507 20.1775 75.2507 29.0401 75.2507 37.8468C90.2001 37.8468 105.037 37.8468 119.875 37.8468C119.875 28.9286 119.875 20.1218 119.875 11.2593C104.981 11.2593 90.1441 11.2593 75.2507 11.2593ZM100.502 93.6416C106.773 93.6416 112.988 93.6416 119.259 93.6416C121.443 93.6416 122.17 92.917 122.17 90.6875C122.17 82.2709 122.17 73.8543 122.17 65.4934C122.17 63.1524 121.443 62.4835 119.035 62.4835C115.732 62.4835 112.428 62.4835 109.125 62.4835C107.557 62.4835 106.829 61.8704 106.493 60.3654C106.045 58.1358 105.597 55.9063 105.149 53.6767C104.814 51.9488 104.142 51.3357 102.406 51.3357C99.2145 51.3357 95.9671 51.3357 92.7756 51.3357C91.0399 51.3357 90.3681 51.9488 90.0321 53.6767C89.5842 55.8505 89.1363 58.0244 88.6884 60.1982C88.2964 61.9261 87.6805 62.4835 85.8888 62.4835C82.5294 62.4835 79.17 62.4835 75.8106 62.4835C73.739 62.4835 72.9551 63.2638 72.9551 65.3819C72.9551 71.0673 72.9551 76.8084 73.0111 82.4938C73.0111 83.1069 73.3471 83.8316 73.795 84.2217C76.3145 86.6185 78.4422 89.3497 79.7859 92.5268C80.1219 93.3629 80.5698 93.6974 81.5216 93.6974C87.7925 93.6416 94.1194 93.6416 100.502 93.6416ZM124.41 26.8105C124.41 31.1024 124.41 35.2828 124.41 39.4633C124.41 41.6371 123.682 42.4174 121.499 42.4174C116.291 42.4174 111.028 42.4174 105.821 42.4174C105.317 42.4174 104.814 42.4174 104.31 42.4174C104.31 44.0896 104.31 45.5388 104.31 47.0438C107.389 47.9913 109.069 50.0537 109.573 53.1193C109.797 54.5128 110.077 55.8505 110.413 57.1883C110.469 57.467 110.748 57.9686 110.972 57.9686C113.212 58.0244 115.396 58.0244 117.635 58.0244C117.691 57.1883 117.691 56.5751 117.747 55.9063C119.259 55.9063 120.659 55.9063 122.17 55.9063C122.17 56.5194 122.058 57.1325 122.226 57.6342C122.338 58.0244 122.562 58.5818 122.954 58.749C125.53 60.1982 126.706 62.372 126.706 65.2704C126.706 71.2345 126.706 77.2543 126.706 83.2184C126.706 83.7201 126.706 84.2217 126.706 84.6676C128.273 84.6676 129.729 84.6676 131.073 84.6676C131.073 65.3262 131.073 46.0962 131.073 26.8662C128.833 26.8105 126.706 26.8105 124.41 26.8105ZM55.3182 28.8728C56.494 28.8728 57.9498 28.8728 59.4615 28.8728C59.4615 27.0334 59.5175 25.3055 59.4615 23.5219C59.1256 14.102 51.6789 5.8526 42.2725 4.73782C38.3532 4.29191 34.3779 4.45912 30.4026 4.45912C24.2997 4.45912 19.1486 6.80016 15.1173 11.3708C10.6381 16.443 9.68629 22.4628 10.3022 28.8728C11.7579 28.8728 13.1577 28.8728 14.6694 28.8728C14.6694 28.3154 14.6694 27.8138 14.6694 27.3121C14.7254 19.5087 19.4846 12.7642 26.8753 10.033C30.1227 8.80677 33.4821 8.91825 36.7855 8.97399C44.7361 9.08547 51.8469 14.3249 54.0865 21.9612C54.7583 24.135 54.9263 26.4761 55.3182 28.8728ZM41.4327 73.5756C41.4327 71.4017 41.4327 69.2279 41.4327 66.9984C37.0095 66.9984 32.5863 66.9984 28.219 66.9984C28.219 69.2279 28.219 71.4017 28.219 73.5756C32.6422 73.5756 37.0095 73.5756 41.4327 73.5756ZM14.6134 33.4992C13.0457 33.4992 11.59 33.4434 10.1342 33.4992C8.79045 33.5549 7.9506 34.391 7.9506 35.7287C7.89461 38.6829 7.89461 41.6371 7.9506 44.647C7.9506 45.8732 8.62248 46.7093 9.85426 46.8208C11.422 46.9323 12.9897 46.8765 14.6134 46.8765C14.6134 42.3059 14.6134 37.9583 14.6134 33.4992ZM55.0383 46.8208C56.662 46.8208 58.2297 46.8765 59.7415 46.8208C60.9732 46.7093 61.7011 45.929 61.7011 44.7027C61.7571 41.6928 61.7571 38.6829 61.7011 35.673C61.7011 34.5582 61.0852 33.7221 60.0214 33.6107C58.3977 33.4434 56.718 33.5549 55.0383 33.5549C55.0383 38.014 55.0383 42.3059 55.0383 46.8208ZM104.198 98.2122C99.6624 98.2122 95.2952 98.2122 90.928 98.2122C90.928 99.6614 90.928 101.111 90.928 102.504C95.4072 102.504 99.7744 102.504 104.198 102.504C104.198 100.999 104.198 99.6614 104.198 98.2122ZM84.993 123.852C85.105 123.908 85.273 124.019 85.3849 124.075C85.4409 123.908 85.4409 123.685 85.5529 123.518C87.2326 120.842 88.8563 118.167 90.536 115.436C90.704 115.213 90.816 114.934 90.816 114.655C90.816 112.091 90.816 109.583 90.816 107.019C90.704 106.963 90.592 106.852 90.48 106.796C90.0881 107.13 89.5842 107.409 89.3602 107.855C87.7365 110.419 86.1688 112.983 84.6011 115.547C84.3771 115.937 84.0972 116.495 84.1532 116.941C84.3771 119.337 84.7131 121.567 84.993 123.852ZM81.4656 98.2122C81.9695 101.947 82.4734 105.514 82.9774 109.304C86.1128 105.403 86.8407 102.894 86.1688 98.2122C84.7131 98.2122 83.2013 98.2122 81.4656 98.2122ZM99.7184 42.4732C98.2067 42.4732 96.8069 42.4732 95.4072 42.4732C95.4072 43.9224 95.4072 45.3716 95.4072 46.7651C96.9189 46.7651 98.3187 46.7651 99.7184 46.7651C99.7184 45.2601 99.7184 43.9224 99.7184 42.4732Z" fill="white"/>
</svg>
