<svg width="134" height="134" viewBox="0 0 134 134" fill="none" xmlns="http://www.w3.org/2000/svg">
<path d="M4.2128 34.6086C2.80852 34.6086 1.51227 34.6086 0.270031 34.6086C0.16201 34.5004 0.0539891 34.4464 0.0539891 34.3382C0.108 30.0662 -0.216063 25.7401 0.270031 21.5222C1.24222 13.9516 7.56145 8.70623 15.2309 8.65216C26.6271 8.59808 38.0234 8.65216 49.3656 8.65216C50.3377 8.65216 50.9859 8.43586 51.634 7.57064C59.3035 -2.48747 74.4804 -2.59562 82.2579 7.40841C83.0141 8.38178 83.7162 8.59808 84.8504 8.59808C95.9226 8.54401 106.995 8.59808 118.067 8.59808C127.519 8.59808 134 15.0872 134 24.5505C134 27.8491 134 31.0936 134 34.5545C132.542 34.5545 131.191 34.5545 129.679 34.5545C129.679 35.2034 129.679 35.6901 129.679 36.1227C129.679 54.0218 129.679 71.9209 129.679 89.766C129.679 90.7393 129.895 91.226 130.813 91.7668C132.866 92.9024 133.946 94.795 134.054 97.1743C134.108 98.6344 134.108 100.04 134.054 101.5C134 104.042 132.866 106.043 130.651 107.232C129.841 107.665 129.733 108.098 129.733 108.909C129.733 116.75 129.733 124.591 129.733 132.432C129.733 132.918 129.733 133.405 129.733 133.946C87.929 133.946 46.233 133.946 4.42884 133.946C4.42884 133.405 4.42884 132.973 4.42884 132.486C4.42884 124.645 4.42884 116.804 4.42884 108.963C4.42884 108.152 4.26681 107.611 3.45665 107.178C1.24222 105.989 0.16201 104.042 0.108 101.554C0.0539891 100.203 0.108 98.8507 0.108 97.4988C0.108 94.8491 1.29623 92.8483 3.61868 91.4964C3.88873 91.3882 4.32082 90.8475 4.32082 90.4149C4.32082 71.975 4.32082 53.5892 4.32082 35.1493C4.32082 35.0412 4.26681 34.879 4.2128 34.6086ZM116.663 34.6627C116.285 34.6627 116.014 34.6086 115.744 34.6086C103.862 34.6086 91.9798 34.6086 80.0975 34.6627C79.5034 34.6627 78.8013 34.9871 78.3152 35.3656C71.5639 40.1784 62.4361 40.1784 55.7928 35.4197C55.1987 34.9871 54.3345 34.7167 53.5784 34.7167C41.9661 34.6086 30.3539 34.6086 18.7416 34.6086C18.3095 34.6086 17.8774 34.6086 17.3914 34.6086C17.3914 53.427 17.3914 72.0831 17.3914 90.7934C21.7122 90.7934 25.925 90.7934 30.2458 90.7934C30.2458 90.3608 30.2458 90.0363 30.2458 89.7119C30.0838 86.6296 31.272 84.3043 34.0266 82.8442C34.2966 82.682 34.5127 82.1413 34.5127 81.7627C34.7287 79.816 34.8908 77.8693 34.9988 75.8685C34.9988 75.6522 34.8908 75.4359 34.8908 75.2196C34.7827 72.9484 34.6747 70.6772 34.6207 68.406C34.6207 67.9193 34.9988 67.3785 34.9448 66.8919C34.8367 64.8911 34.5667 62.8903 34.5127 60.8894C34.4587 58.1316 36.295 56.293 39.0496 56.293C47.5292 56.293 55.9548 56.293 64.4345 56.293C67.297 56.293 68.9174 58.0775 69.0794 60.9435C69.2414 63.9177 68.5393 66.8378 68.9714 69.866C69.2414 71.7046 68.7013 73.7054 68.5933 75.5981C68.5933 75.8144 68.7013 76.0307 68.7013 76.247C68.8093 77.1663 69.0254 78.0856 69.0794 79.0589C69.1334 80.1404 69.0794 81.1679 69.0794 82.1953C73.5082 82.1953 77.7211 82.1953 82.0419 82.1953C82.0419 78.1937 81.9339 74.3003 82.0959 70.4068C82.1499 68.7845 82.474 67 83.2841 65.6481C84.2563 64.0258 84.1483 62.4576 84.1483 60.6191C82.69 60.6191 81.2858 60.6191 79.9355 60.6191C79.9355 59.1049 79.9355 57.753 79.9355 56.4012C87.1189 56.4012 94.2483 56.4012 101.378 56.4012C101.378 57.8612 101.378 59.2131 101.378 60.7272C99.9194 60.7272 98.5691 60.7272 97.2188 60.7272C97.0568 62.6199 97.2188 64.2421 98.137 65.8644C98.8932 67.1622 99.1632 68.8386 99.2172 70.3527C99.3793 74.084 99.2712 77.8152 99.2712 81.5464C99.2712 82.1953 99.3793 82.682 100.081 83.0065C102.458 84.2502 103.592 86.251 103.592 88.9548C103.592 89.5497 103.592 90.1986 103.592 90.7934C108.021 90.7934 112.234 90.7934 116.501 90.7934C116.663 72.0291 116.663 53.427 116.663 34.6627ZM129.625 30.2284C129.625 28.2276 129.625 26.389 129.625 24.5505C129.625 17.5747 125.088 13.0323 118.175 13.0323C107.697 13.0323 97.2188 13.0323 86.7408 13.0323C86.3087 13.0323 85.8766 13.0864 85.3906 13.0864C87.3889 19.1429 86.6328 24.8208 83.2841 30.2284C98.7851 30.2284 114.124 30.2284 129.625 30.2284ZM4.59087 30.1744C19.9298 30.1744 35.2688 30.1744 50.7698 30.1744C49.0955 27.5246 48.1233 24.8208 47.7452 21.8467C47.3672 18.8184 47.7993 15.9524 48.6634 13.0864C48.5014 13.0323 48.3934 12.9782 48.3394 12.9782C37.1592 12.9782 25.925 12.9242 14.7448 13.0323C9.82989 13.0864 5.45504 16.8176 4.7529 21.6844C4.26681 24.4423 4.59087 27.3083 4.59087 30.1744ZM43.2624 129.674C59.1415 129.674 74.9125 129.674 90.6836 129.674C90.6836 119.616 90.6836 109.612 90.6836 99.5537C74.8585 99.5537 59.0874 99.5537 43.2624 99.5537C43.2624 109.612 43.2624 119.616 43.2624 129.674ZM66.865 95.1735C67.297 95.1735 67.7831 95.1735 68.2152 95.1735C77.7211 95.1735 87.2269 95.1735 96.6787 95.1735C98.6231 95.1735 99.3793 94.4165 99.3793 92.4697C99.3793 91.5505 99.3793 90.6852 99.3793 89.766C99.3793 87.1162 98.7851 86.5214 96.1386 86.5214C76.6949 86.5214 57.2511 86.5214 37.8073 86.5214C37.4833 86.5214 37.1592 86.5214 36.8891 86.5214C35.4309 86.5755 34.6207 87.3866 34.6207 88.7926C34.5667 89.8741 34.6207 90.9556 34.6207 92.0371C34.6207 94.5246 35.2688 95.1735 37.7533 95.1735C47.4212 95.1735 57.1431 95.1735 66.865 95.1735ZM38.7795 129.728C38.7795 125.456 38.7795 121.184 38.7795 116.858C28.7336 116.858 18.7416 116.858 8.74968 116.858C8.74968 121.184 8.74968 125.456 8.74968 129.728C18.7956 129.728 28.7336 129.728 38.7795 129.728ZM95.2205 116.804C95.2205 121.076 95.2205 125.348 95.2205 129.674C105.266 129.674 115.258 129.674 125.25 129.674C125.25 125.348 125.25 121.076 125.25 116.804C115.15 116.804 105.266 116.804 95.2205 116.804ZM67.027 4.32609C58.7094 4.32609 51.9041 11.1397 51.9041 19.4673C51.9041 27.795 58.7094 34.6086 67.027 34.6086C75.3446 34.6086 82.1499 27.795 82.1499 19.4673C82.0959 11.1397 75.2906 4.32609 67.027 4.32609ZM38.8335 99.5537C38.4554 99.5537 38.2394 99.4996 38.0234 99.4996C34.8367 99.7159 32.2982 98.6344 30.786 95.6061C30.6779 95.3358 30.1378 95.1735 29.8138 95.1735C22.0903 95.1735 14.3668 95.1195 6.64327 95.1735C5.13097 95.1735 4.37483 96.0387 4.32082 97.5529C4.32082 98.5803 4.32082 99.6078 4.32082 100.635C4.32082 103.123 4.96894 103.772 7.39941 103.772C17.4454 103.772 27.4373 103.772 37.4833 103.772C37.9153 103.772 38.3474 103.718 38.8335 103.718C38.8335 102.312 38.8335 101.014 38.8335 99.5537ZM95.1664 103.826C106.023 103.826 116.771 103.826 127.465 103.826C128.815 103.826 129.571 102.96 129.625 101.554C129.679 100.203 129.679 98.8507 129.625 97.4988C129.571 95.9847 128.761 95.1735 127.249 95.1735C119.579 95.1735 111.856 95.1735 104.186 95.1735C103.808 95.1735 103.268 95.498 103.052 95.8224C101.648 98.364 99.5413 99.5537 96.6247 99.4996C96.1386 99.4996 95.6525 99.4996 95.1124 99.4996C95.1665 100.96 95.1664 102.312 95.1664 103.826ZM8.74968 34.6627C8.74968 53.427 8.74968 72.0832 8.74968 90.7393C10.208 90.7393 11.5582 90.7393 12.9085 90.7393C12.9085 72.0291 12.9085 53.3729 12.9085 34.6627C11.5042 34.6627 10.208 34.6627 8.74968 34.6627ZM125.25 90.7934C125.25 72.0291 125.25 53.3729 125.25 34.7167C123.792 34.7167 122.442 34.7167 121.091 34.7167C121.091 53.427 121.091 72.0831 121.091 90.7934C122.496 90.7934 123.792 90.7934 125.25 90.7934ZM95.0584 82.1413C95.0584 77.9233 95.1124 73.8136 95.0044 69.7579C95.0044 68.9467 94.7344 67.9193 94.1943 67.3785C92.736 66.0267 92.844 64.3503 92.898 62.674C92.898 62.025 92.898 61.3761 92.898 60.6731C91.3857 60.6731 90.0355 60.6731 88.5772 60.6731C88.5772 63.3769 88.9552 65.9726 86.9028 68.1897C86.2547 68.8927 86.4708 70.515 86.4167 71.7046C86.3627 75.1655 86.4167 78.6263 86.4167 82.1413C89.3333 82.1413 92.1419 82.1413 95.0584 82.1413ZM38.8335 108.206C28.7876 108.206 18.7956 108.206 8.74968 108.206C8.74968 109.666 8.74968 111.018 8.74968 112.37C18.8496 112.37 28.8416 112.37 38.8335 112.37C38.8335 110.964 38.8335 109.612 38.8335 108.206ZM95.1664 108.206C95.1664 109.666 95.1664 111.018 95.1664 112.37C105.212 112.37 115.204 112.37 125.25 112.37C125.25 110.91 125.25 109.558 125.25 108.206C115.15 108.206 105.212 108.206 95.1664 108.206ZM64.7585 60.6731C56.1169 60.6731 47.5292 60.6731 38.9955 60.6731C38.9955 62.1332 38.9955 63.4851 38.9955 64.837C47.6372 64.837 56.1709 64.837 64.7585 64.837C64.7585 63.431 64.7585 62.0791 64.7585 60.6731ZM64.7585 69.3253C56.1169 69.3253 47.5292 69.3253 38.9955 69.3253C38.9955 70.7853 38.9955 72.1372 38.9955 73.4891C47.6372 73.4891 56.1709 73.4891 64.7585 73.4891C64.7585 72.0831 64.7585 70.7312 64.7585 69.3253ZM38.9955 82.0872C47.6372 82.0872 56.2249 82.0872 64.7585 82.0872C64.7585 80.6271 64.7585 79.2752 64.7585 77.9233C56.1169 77.9233 47.5832 77.9233 38.9955 77.9233C38.9955 79.3293 38.9955 80.6812 38.9955 82.0872Z" fill="white"/>
</svg>
