<svg width="128" height="127" viewBox="0 0 128 127" fill="none" xmlns="http://www.w3.org/2000/svg">
<path d="M49.5581 0.0994144C65.0763 -0.0994114 77.7912 6.06419 87.7528 17.6955C94.4106 25.4497 98.0649 34.5957 98.966 44.8352C99.867 55.1742 97.6144 64.8172 92.3582 73.7644C91.8577 74.6591 91.9077 75.1065 92.6085 75.8521C103.471 86.5887 114.234 97.375 125.147 108.062C127.449 110.299 128.451 112.834 127.85 115.866C127.6 117.158 126.799 118.5 125.898 119.494C124.246 121.383 122.393 123.123 120.541 124.863C117.388 127.795 113.283 127.795 110.029 124.962C109.679 124.664 109.378 124.316 109.028 124.018C98.2151 113.281 87.3524 102.544 76.5898 91.7581C75.8389 91.0125 75.3884 90.9628 74.4873 91.5096C66.1275 96.3808 57.1169 98.6176 47.4556 98.1703C35.9421 97.6732 25.7802 93.5973 17.07 86.0916C10.0117 79.928 5.05593 72.3726 2.25265 63.4751C-0.600696 54.3292 -0.800931 45.0838 1.85218 35.8384C4.80564 25.4497 10.6124 16.9002 19.1725 10.1898C26.431 4.52329 34.6907 1.19296 43.8013 0.0994144C45.7036 -0.0994114 47.6559 0.0994144 49.5581 0.0994144ZM49.5581 4.72212C25.0794 4.77182 5.10599 24.6047 5.05593 48.9112C5.00587 73.2176 25.1795 93.1996 49.6081 93.1499C74.0868 93.1002 94.0602 73.2673 94.1103 48.9609C94.1604 24.7041 74.0368 4.67241 49.5581 4.72212ZM89.0544 96.9276C89.2045 97.0767 89.2546 97.2258 89.3547 97.3252C97.314 105.229 105.273 113.132 113.233 121.035C114.584 122.377 115.886 122.328 117.287 121.035C118.789 119.594 120.241 118.103 121.693 116.661C123.595 114.772 123.595 113.629 121.693 111.74C114.084 104.185 106.425 96.5797 98.8158 89.0243C98.5154 88.726 98.165 88.4278 97.8647 88.1793C94.9112 91.1119 92.0579 93.9452 89.0544 96.9276ZM93.9601 84.5507C92.2581 82.8607 90.456 81.0712 89.2045 79.8286C86.3512 82.6121 83.4478 85.4951 80.5945 88.2787C81.896 89.571 83.6981 91.3605 85.35 93.0505C88.2034 90.2172 91.1568 87.3343 93.9601 84.5507Z" fill="currentColor"/>
<path d="M49.3078 84.3022C44.352 84.1531 39.6465 83.1589 35.0911 81.2204C33.4392 80.5245 32.7884 79.1327 33.3891 77.7409C33.9898 76.4486 35.3915 75.9018 36.9933 76.5977C42.0493 78.7848 47.3555 79.6298 52.8619 79.083C70.0321 77.393 82.5467 61.1887 79.6934 44.2885C77.5409 31.5139 68.28 21.9206 55.465 19.2364C40.3473 16.0552 24.5287 25.5988 20.3238 40.3617C18.2213 47.7679 18.772 54.9257 22.0258 61.8846C22.9769 63.9722 22.6766 65.364 21.1748 66.0599C19.673 66.7558 18.4216 66.0102 17.4705 63.9722C9.96167 47.8673 15.1177 29.5754 29.9351 19.5347C41.8991 11.4822 58.5686 11.7805 70.2323 20.2306C77.8913 25.748 82.747 33.1045 84.499 42.3499C88.0532 60.8904 76.3395 78.7848 57.8678 83.2086C56.4662 83.5566 55.0145 83.8051 53.5628 83.9542C52.1611 84.1531 50.7094 84.2028 49.3078 84.3022Z" fill="currentColor"/>
<path d="M52.1111 51.4462C52.1111 54.3789 52.1111 57.1624 52.1111 59.946C52.1111 61.7851 50.9097 62.9284 49.3578 62.7295C47.9562 62.5804 47.1052 61.5863 47.1052 59.946C47.1052 57.1624 47.1052 54.4286 47.1052 51.4462C45.6535 51.4462 44.3019 51.4462 42.9503 51.4462C41.4986 51.4462 40.0469 51.4462 38.5952 51.4462C36.8432 51.3965 35.7419 50.4521 35.7419 48.9609C35.7419 47.5194 36.8432 46.4755 38.5952 46.4755C40.948 46.4258 43.2507 46.4755 45.6034 46.4755C46.054 46.4755 46.5045 46.4755 47.1553 46.4755C47.1553 45.6802 47.1553 44.9843 47.1553 44.2387C47.1553 42.1511 47.1553 40.0137 47.1553 37.926C47.2053 36.2857 48.1564 35.1922 49.6081 35.1922C51.0598 35.1425 52.1111 36.2857 52.1611 37.9757C52.2112 40.7593 52.2112 43.5429 52.2112 46.2767C52.2112 46.3264 52.2612 46.3264 52.4114 46.4755C55.1146 46.4755 57.9679 46.4258 60.7712 46.4755C62.7736 46.5252 63.975 48.0164 63.4243 49.7562C63.0739 50.8497 62.1228 51.4462 60.6711 51.4462C58.3183 51.4462 55.9155 51.4462 53.5628 51.4462C53.0622 51.4462 52.6617 51.4462 52.1111 51.4462Z" fill="currentColor"/>
<path d="M26.2307 74.6094C24.8291 74.6094 23.5776 73.4164 23.5276 72.0247C23.4775 70.6826 24.6789 69.4896 26.0305 69.5393C27.4321 69.5393 28.6336 70.782 28.6336 72.1738C28.7337 73.4662 27.5823 74.6094 26.2307 74.6094Z" fill="currentColor"/>
</svg>
