<svg width="134" height="142" viewBox="0 0 134 142" fill="none" xmlns="http://www.w3.org/2000/svg">
<path d="M34.8722 121.651C30.3815 126.253 26.2234 130.633 21.9545 134.903C19.0161 137.897 15.4125 138.784 11.3653 137.509C8.09433 136.511 1.55234 129.968 0.554407 126.697C-0.665287 122.649 0.221763 119.1 3.21556 116.162C7.20728 112.169 11.199 108.177 15.1907 104.185C15.5234 103.852 16.0223 103.575 16.355 103.353C12.8068 97.2542 15.2462 91.0996 21.012 88.6599C19.626 85.8876 19.3488 82.9489 20.5685 80.0102C21.7882 77.0715 24.0612 75.3526 27.055 74.4655C25.6136 66.4811 31.324 61.9344 37.367 62.2117C37.4779 61.879 37.5887 61.5463 37.6442 61.2136C39.3074 54.1164 47.8453 51.344 53.2784 56.2234C54.9971 57.7759 56.4386 59.5502 57.9909 61.2136C64.2002 54.9481 70.1878 49.0152 76.1754 42.9715C76.1754 43.027 76.1754 42.9161 76.12 42.8606C73.6252 40.6427 73.8469 38.9239 76.2863 36.7614C76.9516 36.207 77.6169 35.5971 78.1158 34.8762C78.4485 34.3772 78.5039 33.6564 78.6702 33.0465C78.005 32.8801 77.2842 32.492 76.7298 32.6029C74.9557 32.991 73.2925 33.601 71.5739 34.1554C70.1324 34.6544 68.9681 34.3772 67.9148 33.3237C65.2536 30.6068 62.4816 27.8899 59.8204 25.173C58.2127 23.565 58.2127 22.1234 59.8204 20.5154C66.1961 14.0836 72.6272 7.70717 79.0029 1.33075C80.6661 -0.332662 82.0521 -0.332662 83.7708 1.33075C86.3211 3.88132 88.8713 6.43188 91.4216 8.98245C92.5304 10.0914 92.8076 11.2558 92.3086 12.7529C91.6988 14.4717 91.1998 16.246 90.59 18.0203C90.2573 19.0184 90.4237 19.7392 91.3107 20.2937C92.1978 20.8481 92.7522 20.4045 93.362 19.7946C94.1382 18.9629 94.9698 18.1312 95.8014 17.355C97.0765 16.1906 98.518 16.1906 99.7377 17.4104C103.341 20.959 106.89 24.5076 110.438 28.1117C111.713 29.387 111.713 31.0504 110.549 32.1593C109.44 33.2683 107.777 33.1574 106.446 31.9375C103.785 29.3315 101.124 26.6701 98.518 24.0086C98.2962 23.7868 98.019 23.6205 97.7973 23.3432C97.5201 23.6205 97.2983 23.7868 97.0211 24.0086C94.4154 26.4483 91.2553 26.781 88.2615 24.8958C85.3786 23.1215 84.2143 19.961 85.2677 16.6341C85.6003 15.4698 85.9884 14.3608 86.3765 13.1964C86.6537 12.4756 86.5983 11.9766 85.9884 11.3667C84.4361 9.92505 82.9946 8.37253 81.6086 6.93091C76.1754 12.3647 70.9086 17.6322 65.4754 23.066C67.1386 24.7294 68.9127 26.5592 70.7422 28.278C70.964 28.4998 71.5184 28.4444 71.8511 28.3335C73.0708 28.0008 74.2904 27.5572 75.5656 27.2245C78.7257 26.3374 81.7749 27.5018 83.3827 30.1632C85.0459 32.8247 84.7133 36.0961 82.4957 38.4803C82.0521 38.9793 81.5532 39.3675 81.1096 39.7001C87.0972 45.633 92.8631 51.3995 98.6289 57.1105C100.514 56.6115 102.454 55.7798 104.45 55.558C110.271 54.8926 115.594 58.3304 117.534 63.8751C118.477 66.592 119.308 69.4198 120.195 72.1921C120.306 72.4694 120.417 72.802 120.583 73.1347C123.245 64.2077 124.52 58.8848 121.581 50.4014C121.027 48.738 121.304 47.5736 122.357 46.7974C123.355 46.0766 124.797 46.0211 125.684 46.8528C126.183 47.3518 126.571 48.0172 126.848 48.6826C129.177 55.059 129.398 61.5463 127.68 68.1445C126.848 71.4713 126.017 74.7427 125.185 78.0695C124.575 80.6201 122.967 82.0617 120.75 82.1172C118.643 82.1726 117.091 80.8419 116.314 78.4577C115.039 74.41 113.764 70.3624 112.434 66.3147C110.659 60.8809 105.005 59.273 100.625 62.9325C98.9061 64.3741 97.5755 64.3186 96.0232 62.8216C95.746 62.5443 95.4133 62.2671 95.1916 62.0453C92.3086 64.9286 89.4257 67.8118 86.3211 70.9168C87.5962 72.0812 88.9822 73.3565 90.3128 74.6872C95.5242 79.9547 98.2962 86.2757 98.3517 93.7056C98.3517 96.478 98.4071 99.2503 98.3517 102.023C98.2962 105.349 99.5159 107.956 102.011 110.173C111.768 118.657 121.526 127.196 131.228 135.679C131.727 136.123 132.281 136.566 132.78 137.065C134.166 138.396 134.333 140.004 133.224 141.224C132.115 142.388 130.563 142.444 129.177 141.224C127.236 139.56 125.296 137.841 123.3 136.123C115.15 129.025 107.111 121.817 98.8506 114.831C94.6372 111.227 92.6413 106.902 92.7522 101.357C92.8631 97.0324 93.0848 92.6521 91.976 88.3827C90.9781 84.6123 89.1485 81.2855 86.3765 78.5131C83.1609 75.3526 80.0563 72.1921 76.8407 69.0316C72.5718 64.7622 67.1386 64.8177 62.8697 69.0871C59.765 72.1367 56.7158 75.2417 53.6665 78.2913C53.3893 78.5686 53.1121 78.9012 52.8349 79.1785C56.6603 82.0063 62.7588 81.6181 66.6396 78.2913C67.4158 77.5705 68.1365 76.7942 68.9127 76.0734C70.1878 74.909 71.7402 74.909 73.0153 76.0734C73.6252 76.6279 74.1796 77.2378 74.7894 77.8477C76.3417 79.4557 76.2863 80.6755 75.0112 82.5053C74.0132 83.8915 73.1262 85.3885 72.5163 86.9411C71.4075 89.7134 71.7402 92.4858 73.2371 95.0363C73.9024 96.2007 74.7894 97.1988 75.6765 98.1968C76.7853 99.5275 76.7853 101.136 75.7319 102.189C74.5676 103.298 72.9044 103.298 71.6293 101.967C68.8018 99.084 66.806 95.7571 66.4179 91.7095C66.4179 91.5986 66.3624 91.4877 66.2515 91.2105C57.2702 100.415 48.3442 109.563 39.4183 118.712C44.0199 124.368 50.0629 128.693 58.1018 129.691C60.8184 130.023 63.4241 130.689 66.0852 131.299C69.9106 132.241 72.7381 134.57 74.8448 137.841C75.6765 139.117 75.3438 140.725 74.1796 141.556C73.0153 142.444 71.5184 142.277 70.4096 141.168C70.2433 140.947 70.0215 140.725 69.9106 140.503C68.3029 138.063 65.9743 136.843 63.2023 136.344C60.0976 135.79 56.9375 135.069 53.8328 134.459C48.1225 133.295 43.2991 130.633 39.1965 126.53C37.8659 124.922 36.5354 123.425 34.8722 121.651ZM20.125 107.124C15.5788 111.67 11.0881 115.995 6.76376 120.487C5.0451 122.205 5.15598 124.811 6.87464 126.641C8.20521 128.027 9.59123 129.414 10.9772 130.744C13.3612 133.128 15.856 133.128 18.24 130.8C32.8209 116.328 47.4017 101.856 61.9826 87.3846C62.3153 87.052 62.5925 86.7193 62.6479 86.6638C60.0422 86.442 57.3811 86.2203 54.6645 85.9985C54.3873 85.9985 53.9992 86.1094 53.8328 86.2757C51.9479 89.159 49.1758 90.5451 45.794 90.7669C45.6831 93.0957 44.9623 95.1472 43.4655 96.9215C41.9686 98.6958 39.9727 99.6939 37.6996 100.193C38.0877 104.684 36.6463 108.233 32.6545 110.229C27.8312 112.613 23.6177 111.171 20.125 107.124ZM82.163 66.4256C85.1568 63.4315 88.0397 60.5482 90.7563 57.8313C87.2635 54.3382 83.7153 50.7341 80.3889 47.4073C76.0645 51.7322 71.6293 56.1125 67.3604 60.3819C73.4034 59.3839 78.3376 61.8235 82.163 66.4256ZM48.9541 83.3924C45.5722 80.3428 45.295 79.5666 46.9582 76.8497C44.4634 74.3546 41.9686 71.8594 39.4183 69.3643C39.1965 69.1425 38.9748 68.9208 38.6976 68.699C37.0898 67.4237 34.8167 67.5346 33.3753 68.9762C31.9892 70.3624 31.8229 72.802 33.2089 74.2437C36.4245 77.6259 39.7509 80.8973 43.0774 84.1133C44.9069 85.8321 47.4572 85.3885 48.9541 83.3924ZM40.3608 90.6006C39.9727 89.7689 39.7509 88.8263 39.1965 88.2163C36.8126 85.6658 34.3177 83.1707 31.7675 80.7864C30.2706 79.4003 27.8866 79.5666 26.5006 80.8973C25.0592 82.2835 24.8374 84.8341 26.2789 86.2757C28.6628 88.8263 31.1576 91.3214 33.7079 93.7056C34.9276 94.87 36.4799 94.9254 37.9768 94.2601C39.4183 93.5947 40.0836 92.3194 40.3608 90.6006ZM56.4386 67.2573C54.1655 64.9286 51.8924 62.5998 49.5085 60.3265C48.0116 58.8848 45.5722 58.9957 44.1307 60.3819C42.6338 61.8235 42.3566 64.2077 43.8535 65.7603C46.1266 68.1999 48.6214 70.4733 50.9499 72.7466C52.724 70.9723 54.5536 69.198 56.4386 67.2573ZM28.053 106.015C29.8271 105.738 31.1022 105.128 31.7675 103.631C32.4882 102.078 32.3219 100.526 31.2131 99.2503C29.8825 97.8087 28.441 96.3671 27.055 95.0363C25.3364 93.3729 22.897 93.3729 21.3446 94.9254C19.7923 96.478 19.8477 98.9176 21.4555 100.636C22.7307 101.967 24.0058 103.298 25.3918 104.518C26.1125 105.183 27.1659 105.516 28.053 106.015Z" fill="white"/>
</svg>
